# xmcd
#
# Track frame offsets: 
#        150
#        13990
#        41887
#        71820
#        93695
#        117360
#        136325
#        158547
#
# Disc length: 2515 seconds
#
# Revision: 0
# Processed by: cddbd v1.5.2PL0 Copyright (c) Steve Scherf et al.
# Submitted via: ExactAudioCopy v0.99pb5
#
DISCID=7009d108
DTITLE=Fat Danny and The Hard Tymz Blues Band - Power Of The Blues
DYEAR=2001
DGENRE=Blues
TTITLE0=Gone Wrong
TTITLE1=Another Day
TTITLE2=$7 Boogie
TTITLE3=Power Of The Blues
TTITLE4=Mr. 5 By 5
TTITLE5=Ain't Hooked Up Right
TTITLE6=Pissin' In The Wind
TTITLE7=My Baby Don't Love Me
EXTD=
EXTT0=
EXTT1=
EXTT2=
EXTT3=
EXTT4=
EXTT5=
EXTT6=
EXTT7=
PLAYORDER=
